<?xml version="1.0" encoding="utf-8" ?>
<svg baseProfile="tiny" height="100%" version="1.2" width="100%" xmlns="http://www.w3.org/2000/svg" xmlns:ev="http://www.w3.org/2001/xml-events" xmlns:xlink="http://www.w3.org/1999/xlink"><defs /><polygon fill="black" points="18.0,144.0 19.0,144.0 20.0,145.0 20.0,144.0" /><polygon fill="black" points="24.0,143.0" /><polygon fill="black" points="174.0,142.0 174.0,143.0 178.0,143.0 179.0,144.0 179.0,145.0 178.0,146.0 177.0,146.0 176.0,145.0 174.0,145.0 175.0,146.0 175.0,147.0 176.0,148.0 182.0,148.0 183.0,149.0 182.0,150.0 180.0,150.0 183.0,150.0 184.0,149.0 184.0,148.0 183.0,147.0 183.0,146.0 182.0,146.0 179.0,143.0 177.0,143.0 176.0,142.0" /><polygon fill="black" points="179.0,147.0 180.0,146.0 182.0,146.0 183.0,147.0 182.0,148.0 180.0,148.0" /><polygon fill="black" points="175.0,147.0 176.0,146.0 178.0,146.0 179.0,147.0 178.0,148.0 176.0,148.0" /><polygon fill="black" points="212.0,141.0 213.0,141.0" /><polygon fill="black" points="229.0,140.0 228.0,141.0 224.0,141.0 231.0,141.0 232.0,140.0 233.0,140.0" /><polygon fill="black" points="217.0,138.0 222.0,138.0" /><polygon fill="black" points="215.0,138.0" /><polygon fill="black" points="208.0,138.0 207.0,139.0 205.0,139.0 205.0,140.0 206.0,139.0 212.0,139.0 211.0,138.0" /><polygon fill="black" points="236.0,137.0 238.0,137.0" /><polygon fill="black" points="232.0,136.0 232.0,138.0 233.0,138.0 232.0,137.0 233.0,136.0" /><polygon fill="black" points="215.0,136.0" /><polygon fill="black" points="212.0,136.0" /><polygon fill="black" points="208.0,136.0" /><polygon fill="black" points="274.0,108.0 273.0,109.0 273.0,110.0 272.0,111.0 273.0,110.0 274.0,110.0" /><polygon fill="black" points="252.0,107.0" /><polygon fill="black" points="124.0,107.0" /><polygon fill="black" points="274.0,106.0" /><polygon fill="black" points="21.0,102.0 20.0,103.0 0.0,103.0 0.0,154.0 1.0,155.0 0.0,156.0 0.0,182.0 274.0,182.0 274.0,156.0 272.0,156.0 271.0,155.0 272.0,154.0 274.0,154.0 274.0,136.0 271.0,136.0 270.0,137.0 269.0,136.0 268.0,137.0 267.0,136.0 266.0,136.0 265.0,135.0 266.0,134.0 274.0,134.0 272.0,134.0 271.0,133.0 272.0,132.0 274.0,132.0 274.0,122.0 270.0,122.0 269.0,123.0 268.0,122.0 262.0,122.0 261.0,121.0 259.0,121.0 258.0,120.0 253.0,120.0 252.0,119.0 250.0,119.0 249.0,120.0 248.0,120.0 247.0,119.0 248.0,118.0 238.0,118.0 237.0,117.0 233.0,117.0 232.0,116.0 231.0,117.0 230.0,116.0 225.0,116.0 224.0,115.0 223.0,116.0 222.0,115.0 220.0,115.0 219.0,114.0 212.0,114.0 211.0,115.0 211.0,116.0 210.0,117.0 210.0,119.0 208.0,121.0 207.0,121.0 207.0,122.0 210.0,122.0 212.0,124.0 213.0,124.0 214.0,125.0 214.0,128.0 216.0,128.0 217.0,127.0 218.0,127.0 219.0,128.0 220.0,128.0 221.0,129.0 221.0,130.0 220.0,131.0 219.0,131.0 218.0,132.0 211.0,132.0 220.0,132.0 221.0,133.0 221.0,134.0 237.0,134.0 238.0,135.0 239.0,135.0 240.0,136.0 240.0,137.0 241.0,137.0 240.0,136.0 241.0,135.0 244.0,135.0 245.0,136.0 247.0,136.0 247.0,135.0 248.0,134.0 249.0,135.0 250.0,135.0 251.0,136.0 249.0,138.0 247.0,138.0 246.0,139.0 238.0,139.0 239.0,139.0 240.0,140.0 239.0,141.0 240.0,141.0 240.0,140.0 241.0,139.0 242.0,139.0 243.0,140.0 243.0,141.0 246.0,141.0 245.0,140.0 246.0,139.0 247.0,139.0 248.0,140.0 248.0,141.0 251.0,141.0 252.0,142.0 251.0,143.0 248.0,143.0 248.0,144.0 247.0,145.0 245.0,143.0 241.0,143.0 240.0,144.0 238.0,144.0 237.0,143.0 236.0,144.0 239.0,144.0 240.0,145.0 239.0,146.0 235.0,146.0 233.0,144.0 234.0,143.0 234.0,142.0 233.0,143.0 224.0,143.0 223.0,144.0 221.0,142.0 220.0,143.0 219.0,142.0 215.0,142.0 214.0,143.0 214.0,145.0 215.0,146.0 216.0,145.0 217.0,146.0 218.0,146.0 219.0,147.0 221.0,147.0 222.0,148.0 222.0,150.0 219.0,153.0 218.0,153.0 217.0,154.0 213.0,154.0 212.0,155.0 208.0,155.0 207.0,156.0 200.0,156.0 199.0,155.0 195.0,155.0 194.0,154.0 192.0,154.0 191.0,153.0 190.0,153.0 188.0,151.0 187.0,151.0 186.0,150.0 186.0,149.0 186.0,150.0 185.0,151.0 185.0,152.0 183.0,154.0 182.0,153.0 178.0,153.0 177.0,154.0 175.0,154.0 174.0,155.0 172.0,155.0 171.0,156.0 166.0,156.0 165.0,157.0 158.0,157.0 157.0,156.0 155.0,156.0 154.0,155.0 151.0,155.0 150.0,154.0 151.0,153.0 150.0,153.0 149.0,152.0 149.0,151.0 148.0,150.0 148.0,149.0 147.0,148.0 146.0,148.0 144.0,146.0 142.0,146.0 141.0,145.0 139.0,145.0 138.0,144.0 134.0,144.0 133.0,143.0 132.0,143.0 131.0,142.0 125.0,142.0 124.0,141.0 122.0,141.0 121.0,140.0 119.0,140.0 118.0,139.0 117.0,139.0 116.0,138.0 114.0,138.0 113.0,137.0 110.0,137.0 109.0,136.0 108.0,136.0 107.0,135.0 105.0,135.0 104.0,134.0 104.0,133.0 106.0,131.0 105.0,130.0 105.0,129.0 103.0,127.0 102.0,127.0 101.0,126.0 100.0,126.0 99.0,125.0 97.0,125.0 96.0,124.0 94.0,124.0 93.0,123.0 88.0,123.0 87.0,122.0 85.0,122.0 84.0,121.0 83.0,121.0 82.0,120.0 82.0,119.0 77.0,119.0 76.0,120.0 74.0,120.0 73.0,121.0 72.0,121.0 71.0,122.0 70.0,122.0 69.0,123.0 68.0,123.0 67.0,124.0 66.0,124.0 65.0,125.0 64.0,125.0 63.0,126.0 62.0,126.0 60.0,128.0 59.0,128.0 58.0,129.0 56.0,129.0 54.0,131.0 53.0,131.0 52.0,132.0 51.0,132.0 50.0,133.0 49.0,133.0 48.0,134.0 47.0,134.0 45.0,136.0 43.0,136.0 41.0,138.0 40.0,138.0 39.0,139.0 38.0,139.0 37.0,140.0 36.0,140.0 35.0,141.0 33.0,141.0 31.0,143.0 29.0,143.0 28.0,144.0 27.0,144.0 26.0,145.0 25.0,145.0 24.0,146.0 23.0,146.0 22.0,147.0 21.0,147.0 20.0,148.0 19.0,148.0 18.0,149.0 17.0,149.0 16.0,150.0 15.0,150.0 14.0,151.0 13.0,151.0 12.0,152.0 10.0,152.0 9.0,153.0 8.0,153.0 6.0,155.0 5.0,155.0 4.0,156.0 3.0,156.0 2.0,155.0 3.0,154.0 2.0,154.0 0.0,152.0 0.0,151.0 1.0,150.0 2.0,151.0 3.0,150.0 4.0,150.0 5.0,151.0 5.0,152.0 6.0,152.0 8.0,150.0 9.0,150.0 6.0,147.0 6.0,146.0 7.0,145.0 9.0,147.0 10.0,147.0 11.0,148.0 12.0,147.0 13.0,148.0 12.0,147.0 14.0,145.0 15.0,145.0 16.0,146.0 16.0,145.0 14.0,143.0 16.0,141.0 17.0,142.0 21.0,142.0 23.0,140.0 25.0,140.0 26.0,141.0 26.0,140.0 24.0,138.0 25.0,137.0 27.0,137.0 28.0,138.0 29.0,137.0 31.0,137.0 32.0,138.0 30.0,136.0 31.0,135.0 33.0,135.0 36.0,132.0 37.0,132.0 38.0,131.0 39.0,131.0 40.0,130.0 43.0,130.0 44.0,129.0 45.0,129.0 45.0,128.0 46.0,127.0 47.0,127.0 48.0,128.0 48.0,127.0 47.0,126.0 46.0,126.0 44.0,124.0 44.0,120.0 47.0,117.0 47.0,116.0 48.0,115.0 49.0,115.0 51.0,113.0 54.0,113.0 56.0,111.0 57.0,111.0 58.0,110.0 59.0,110.0 61.0,108.0 51.0,108.0 50.0,109.0 38.0,109.0 36.0,107.0 37.0,106.0 39.0,106.0 38.0,106.0 37.0,105.0 36.0,105.0 35.0,104.0 32.0,104.0 31.0,103.0 28.0,103.0 27.0,102.0" /><polygon fill="black" points="258.0,156.0 259.0,155.0 260.0,156.0 259.0,157.0" /><polygon fill="black" points="0.0,156.0 1.0,155.0 2.0,155.0 3.0,156.0 2.0,157.0 1.0,157.0" /><polygon fill="black" points="221.0,151.0 222.0,150.0 224.0,150.0 225.0,151.0 224.0,152.0 222.0,152.0" /><polygon fill="black" points="5.0,151.0 6.0,150.0 7.0,151.0 6.0,152.0" /><polygon fill="black" points="253.0,150.0 254.0,149.0 256.0,149.0 257.0,150.0 256.0,151.0 254.0,151.0" /><polygon fill="black" points="231.0,150.0 232.0,149.0 233.0,150.0 232.0,151.0" /><polygon fill="black" points="6.0,149.0 7.0,148.0 8.0,149.0 7.0,150.0" /><polygon fill="black" points="222.0,148.0 223.0,147.0 224.0,148.0 223.0,149.0" /><polygon fill="black" points="4.0,148.0 5.0,147.0 6.0,148.0 5.0,149.0" /><polygon fill="black" points="233.0,147.0 234.0,146.0 235.0,147.0 234.0,148.0" /><polygon fill="black" points="231.0,147.0 232.0,146.0 233.0,147.0 232.0,148.0" /><polygon fill="black" points="225.0,147.0 226.0,146.0 229.0,146.0 230.0,147.0 229.0,148.0 226.0,148.0" /><polygon fill="black" points="10.0,147.0 11.0,146.0 12.0,147.0 11.0,148.0" /><polygon fill="black" points="229.0,145.0 230.0,144.0 231.0,144.0 232.0,145.0 231.0,146.0 230.0,146.0" /><polygon fill="black" points="219.0,145.0 220.0,144.0 225.0,144.0 226.0,145.0 225.0,146.0 224.0,146.0 223.0,147.0 222.0,147.0 221.0,146.0 220.0,147.0 219.0,146.0" /><polygon fill="black" points="11.0,145.0 12.0,144.0 13.0,144.0 14.0,145.0 13.0,146.0 12.0,146.0" /><polygon fill="black" points="2.0,145.0 3.0,144.0 4.0,145.0 3.0,146.0" /><polygon fill="black" points="9.0,144.0 10.0,143.0 11.0,143.0 12.0,144.0 11.0,145.0 10.0,145.0" /><polygon fill="black" points="218.0,143.0 219.0,142.0 220.0,143.0 219.0,144.0" /><polygon fill="black" points="216.0,142.0 217.0,142.0 218.0,143.0 216.0,145.0 215.0,145.0 214.0,144.0" /><polygon fill="black" points="268.0,142.0 269.0,141.0 270.0,142.0 269.0,143.0" /><polygon fill="black" points="264.0,141.0 265.0,140.0 267.0,140.0 268.0,141.0 268.0,142.0 267.0,143.0 266.0,143.0" /><polygon fill="black" points="257.0,140.0 258.0,139.0 259.0,139.0 261.0,141.0 261.0,142.0 260.0,143.0 259.0,143.0 257.0,141.0" /><polygon fill="black" points="250.0,140.0 251.0,139.0 254.0,139.0 255.0,140.0 254.0,141.0 251.0,141.0" /><polygon fill="black" points="269.0,139.0 270.0,138.0 271.0,138.0 272.0,139.0 271.0,140.0 270.0,140.0" /><polygon fill="black" points="264.0,138.0 265.0,137.0 266.0,138.0 265.0,139.0" /><polygon fill="black" points="255.0,138.0 256.0,137.0 257.0,138.0 257.0,139.0 256.0,140.0 255.0,139.0" /><polygon fill="black" points="257.0,137.0 258.0,136.0 259.0,137.0 258.0,138.0" /><polygon fill="black" points="262.0,136.0 263.0,135.0 265.0,135.0 266.0,136.0 265.0,137.0 264.0,137.0 264.0,138.0 263.0,139.0 262.0,139.0 260.0,137.0 261.0,136.0" /><polygon fill="black" points="253.0,136.0 254.0,135.0 256.0,135.0 257.0,136.0 255.0,138.0 251.0,138.0 250.0,137.0 251.0,136.0" /><polygon fill="black" points="257.0,135.0 258.0,134.0 261.0,134.0 262.0,135.0 261.0,136.0 258.0,136.0" /><polygon fill="black" points="240.0,134.0 241.0,133.0 242.0,134.0 241.0,135.0" /><polygon fill="black" points="237.0,134.0 238.0,133.0 239.0,133.0 240.0,134.0 239.0,135.0 238.0,135.0" /><polygon fill="black" points="267.0,133.0 268.0,132.0 269.0,132.0 270.0,133.0 269.0,134.0 268.0,134.0" /><polygon fill="black" points="245.0,133.0 246.0,132.0 247.0,133.0 247.0,134.0 246.0,135.0 245.0,134.0" /><polygon fill="black" points="222.0,133.0 223.0,132.0 224.0,132.0 225.0,133.0 224.0,134.0 223.0,134.0" /><polygon fill="black" points="269.0,132.0 270.0,131.0 271.0,131.0 272.0,132.0 271.0,133.0 270.0,133.0" /><polygon fill="black" points="263.0,132.0 264.0,131.0 265.0,132.0 264.0,133.0" /><polygon fill="black" points="231.0,132.0 232.0,131.0 233.0,131.0 234.0,132.0 233.0,133.0 232.0,133.0" /><polygon fill="black" points="243.0,131.0 244.0,130.0 247.0,130.0 248.0,131.0 247.0,132.0 244.0,132.0" /><polygon fill="black" points="241.0,130.0 242.0,131.0 242.0,132.0 241.0,133.0 240.0,133.0 239.0,132.0" /><polygon fill="black" points="235.0,131.0 236.0,130.0 239.0,130.0 240.0,131.0 239.0,132.0 236.0,132.0" /><polygon fill="black" points="230.0,131.0 231.0,130.0 232.0,131.0 231.0,132.0" /><polygon fill="black" points="220.0,131.0 221.0,130.0 223.0,130.0 224.0,131.0 223.0,132.0 221.0,132.0" /><polygon fill="black" points="245.0,129.0 246.0,128.0 247.0,129.0 246.0,130.0" /><polygon fill="black" points="223.0,129.0 224.0,128.0 225.0,129.0 224.0,130.0" /><polygon fill="black" points="237.0,128.0 238.0,127.0 239.0,127.0 240.0,128.0 239.0,129.0 238.0,129.0" /><polygon fill="black" points="220.0,128.0 221.0,127.0 222.0,127.0 223.0,128.0 222.0,129.0 221.0,129.0" /><polygon fill="black" points="248.0,127.0 249.0,126.0 250.0,126.0 251.0,127.0 250.0,128.0 249.0,128.0" /><polygon fill="black" points="246.0,127.0 247.0,126.0 248.0,127.0 247.0,128.0" /><polygon fill="black" points="274.0,101.0" /><polygon fill="black" points="216.0,98.0 216.0,100.0 218.0,102.0 218.0,103.0 219.0,103.0 219.0,102.0 218.0,101.0 218.0,99.0 217.0,99.0" /><polygon fill="black" points="131.0,98.0 130.0,99.0 130.0,100.0 129.0,101.0 128.0,101.0 128.0,102.0 127.0,103.0 128.0,102.0 129.0,102.0 133.0,98.0" /><polygon fill="black" points="221.0,93.0" /><polygon fill="black" points="125.0,85.0" /><polygon fill="black" points="134.0,78.0 135.0,78.0" /><polygon fill="black" points="130.0,71.0 129.0,72.0 129.0,73.0 132.0,73.0" /><polygon fill="black" points="40.0,71.0 39.0,72.0" /><polygon fill="black" points="53.0,65.0 52.0,66.0 52.0,67.0 53.0,68.0 55.0,68.0 55.0,66.0 54.0,66.0" /><polygon fill="black" points="147.0,63.0" /><polygon fill="black" points="145.0,63.0 144.0,64.0 143.0,64.0 143.0,65.0" /><polygon fill="black" points="41.0,63.0 40.0,64.0 40.0,66.0 42.0,66.0 43.0,65.0 42.0,64.0 43.0,63.0" /><polygon fill="black" points="64.0,58.0 64.0,59.0 75.0,59.0 66.0,59.0 65.0,58.0" /><polygon fill="black" points="149.0,52.0 148.0,53.0 147.0,53.0 147.0,58.0 149.0,58.0 149.0,57.0 153.0,53.0 153.0,52.0 152.0,53.0 151.0,52.0" /><polygon fill="black" points="149.0,52.0 150.0,53.0 150.0,54.0 148.0,56.0 147.0,55.0 147.0,54.0" /><polygon fill="black" points="170.0,49.0" /><polygon fill="black" points="175.0,48.0" /><polygon fill="black" points="172.0,47.0 172.0,48.0 173.0,48.0 173.0,47.0" /><polygon fill="black" points="174.0,34.0 173.0,35.0 172.0,35.0 172.0,36.0 171.0,37.0 171.0,39.0 172.0,40.0 173.0,40.0 172.0,39.0 173.0,38.0 173.0,36.0 174.0,35.0 176.0,35.0 175.0,34.0" /><polygon fill="black" points="54.0,32.0 55.0,32.0" /><polygon fill="black" points="216.0,10.0 216.0,11.0" /><polygon fill="black" points="230.0,0.0 230.0,1.0 228.0,3.0 228.0,5.0 227.0,6.0 227.0,7.0 226.0,8.0 226.0,9.0 225.0,10.0 225.0,11.0 224.0,12.0 224.0,14.0 223.0,15.0 223.0,17.0 222.0,18.0 222.0,19.0 221.0,20.0 221.0,22.0 220.0,23.0 220.0,32.0 219.0,33.0 219.0,34.0 218.0,35.0 218.0,36.0 216.0,38.0 216.0,39.0 215.0,40.0 215.0,42.0 214.0,43.0 214.0,45.0 213.0,46.0 213.0,47.0 212.0,48.0 212.0,50.0 211.0,51.0 211.0,53.0 210.0,54.0 210.0,55.0 209.0,56.0 209.0,57.0 208.0,58.0 208.0,59.0 207.0,60.0 207.0,62.0 205.0,64.0 205.0,67.0 206.0,68.0 206.0,69.0 207.0,70.0 207.0,72.0 209.0,74.0 209.0,75.0 208.0,76.0 208.0,78.0 209.0,79.0 209.0,80.0 210.0,81.0 210.0,82.0 211.0,83.0 211.0,84.0 214.0,87.0 213.0,88.0 213.0,89.0 214.0,90.0 214.0,92.0 216.0,94.0 216.0,96.0 217.0,95.0 218.0,95.0 219.0,96.0 219.0,97.0 220.0,96.0 216.0,92.0 216.0,91.0 217.0,90.0 219.0,92.0 219.0,89.0 220.0,88.0 224.0,92.0 224.0,93.0 229.0,93.0 231.0,91.0 231.0,89.0 232.0,88.0 233.0,88.0 234.0,89.0 233.0,90.0 233.0,92.0 232.0,93.0 232.0,94.0 231.0,95.0 231.0,96.0 230.0,97.0 229.0,97.0 228.0,96.0 228.0,97.0 229.0,97.0 230.0,98.0 230.0,101.0 231.0,100.0 231.0,98.0 232.0,97.0 232.0,96.0 233.0,95.0 233.0,93.0 234.0,92.0 237.0,95.0 236.0,96.0 236.0,101.0 235.0,102.0 234.0,102.0 235.0,103.0 235.0,104.0 236.0,104.0 237.0,105.0 237.0,104.0 238.0,103.0 239.0,103.0 240.0,102.0 242.0,102.0 242.0,101.0 243.0,100.0 244.0,100.0 244.0,99.0 245.0,98.0 245.0,97.0 246.0,96.0 247.0,96.0 247.0,95.0 248.0,94.0 249.0,94.0 249.0,93.0 250.0,92.0 251.0,92.0 252.0,93.0 252.0,94.0 253.0,95.0 251.0,97.0 251.0,98.0 248.0,101.0 248.0,103.0 248.0,102.0 254.0,96.0 255.0,97.0 255.0,96.0 256.0,95.0 257.0,95.0 257.0,94.0 260.0,91.0 260.0,90.0 261.0,89.0 262.0,89.0 263.0,90.0 263.0,92.0 262.0,93.0 262.0,95.0 261.0,96.0 260.0,95.0 260.0,96.0 257.0,99.0 256.0,99.0 256.0,100.0 255.0,101.0 254.0,101.0 254.0,104.0 256.0,102.0 257.0,102.0 258.0,101.0 258.0,100.0 260.0,98.0 261.0,98.0 262.0,97.0 263.0,97.0 264.0,98.0 263.0,99.0 263.0,100.0 261.0,102.0 261.0,103.0 260.0,104.0 259.0,104.0 259.0,105.0 257.0,107.0 258.0,106.0 259.0,106.0 259.0,105.0 261.0,103.0 262.0,103.0 262.0,102.0 264.0,100.0 265.0,100.0 266.0,99.0 267.0,100.0 267.0,101.0 265.0,103.0 264.0,103.0 264.0,104.0 263.0,105.0 263.0,106.0 262.0,107.0 263.0,107.0 265.0,105.0 266.0,105.0 266.0,104.0 267.0,103.0 268.0,104.0 268.0,106.0 266.0,108.0 269.0,105.0 269.0,104.0 271.0,102.0 272.0,103.0 272.0,104.0 271.0,105.0 271.0,106.0 270.0,107.0 270.0,108.0 269.0,109.0 270.0,110.0 270.0,109.0 271.0,108.0 271.0,107.0 272.0,106.0 272.0,104.0 273.0,103.0 274.0,104.0 273.0,103.0 272.0,103.0 271.0,102.0 271.0,101.0 272.0,100.0 272.0,99.0 271.0,99.0 270.0,98.0 270.0,97.0 271.0,96.0 272.0,96.0 273.0,97.0 274.0,97.0 273.0,96.0 274.0,95.0 274.0,92.0 273.0,92.0 272.0,91.0 272.0,90.0 273.0,89.0 274.0,89.0 274.0,86.0 273.0,86.0 272.0,85.0 272.0,83.0 273.0,82.0 274.0,83.0 274.0,79.0 273.0,79.0 272.0,78.0 272.0,77.0 274.0,75.0 274.0,49.0 273.0,48.0 273.0,47.0 274.0,46.0 274.0,38.0 273.0,39.0 272.0,38.0 272.0,37.0 273.0,36.0 274.0,36.0 274.0,0.0" /><polygon fill="black" points="270.0,98.0 271.0,99.0 271.0,100.0 270.0,101.0 270.0,103.0 269.0,104.0 268.0,104.0 267.0,103.0 268.0,102.0 268.0,100.0" /><polygon fill="black" points="266.0,98.0 267.0,97.0 268.0,98.0 267.0,99.0" /><polygon fill="black" points="267.0,96.0 268.0,95.0 269.0,95.0 270.0,96.0 269.0,97.0 268.0,97.0" /><polygon fill="black" points="262.0,96.0 263.0,95.0 264.0,95.0 265.0,96.0 265.0,97.0 264.0,98.0" /><polygon fill="black" points="271.0,94.0 272.0,93.0 273.0,93.0 274.0,94.0 273.0,95.0 272.0,95.0" /><polygon fill="black" points="268.0,94.0 269.0,93.0 270.0,93.0 271.0,94.0 270.0,95.0 269.0,95.0" /><polygon fill="black" points="264.0,94.0 265.0,93.0 266.0,94.0 266.0,95.0 265.0,96.0 264.0,95.0" /><polygon fill="black" points="270.0,92.0 271.0,91.0 272.0,92.0 271.0,93.0" /><polygon fill="black" points="265.0,92.0 266.0,91.0 267.0,92.0 267.0,93.0 266.0,94.0 265.0,93.0" /><polygon fill="black" points="251.0,91.0 252.0,90.0 253.0,90.0 255.0,92.0 255.0,93.0 254.0,94.0 253.0,94.0 251.0,92.0" /><polygon fill="black" points="235.0,91.0 236.0,90.0 237.0,90.0 238.0,91.0 238.0,93.0 237.0,94.0 235.0,92.0" /><polygon fill="black" points="266.0,90.0 267.0,89.0 268.0,90.0 268.0,91.0 267.0,92.0 266.0,91.0" /><polygon fill="black" points="254.0,89.0 255.0,88.0 258.0,91.0 258.0,92.0 257.0,93.0 256.0,93.0 255.0,92.0 255.0,91.0 254.0,90.0" /><polygon fill="black" points="237.0,89.0 238.0,88.0 240.0,90.0 240.0,91.0 239.0,92.0 237.0,90.0" /><polygon fill="black" points="222.0,89.0 223.0,88.0 225.0,88.0 226.0,89.0 226.0,91.0 225.0,92.0 224.0,92.0 223.0,91.0 224.0,90.0 223.0,90.0" /><polygon fill="black" points="214.0,89.0 215.0,88.0 216.0,88.0 217.0,89.0 215.0,91.0 214.0,90.0" /><polygon fill="black" points="267.0,88.0 268.0,87.0 269.0,87.0 270.0,88.0 269.0,89.0 268.0,89.0" /><polygon fill="black" points="262.0,88.0 263.0,87.0 265.0,89.0 265.0,90.0 264.0,91.0 262.0,89.0" /><polygon fill="black" points="229.0,87.0 230.0,88.0 230.0,90.0 228.0,92.0 227.0,91.0 227.0,89.0" /><polygon fill="black" points="218.0,88.0 219.0,87.0 220.0,88.0 219.0,89.0" /><polygon fill="black" points="272.0,86.0 273.0,87.0 273.0,89.0 272.0,90.0 270.0,88.0" /><polygon fill="black" points="264.0,86.0 265.0,85.0 266.0,86.0 266.0,87.0 265.0,88.0 264.0,87.0" /><polygon fill="black" points="256.0,86.0 257.0,85.0 259.0,87.0 259.0,89.0 258.0,90.0 256.0,88.0" /><polygon fill="black" points="242.0,85.0 243.0,84.0 244.0,84.0 245.0,85.0 245.0,87.0 244.0,88.0 243.0,88.0 243.0,89.0 242.0,90.0 241.0,90.0 240.0,89.0 240.0,87.0 241.0,86.0 242.0,86.0" /><polygon fill="black" points="236.0,84.0 237.0,84.0 238.0,85.0 236.0,87.0 236.0,88.0 235.0,89.0 234.0,89.0 233.0,88.0 233.0,87.0" /><polygon fill="black" points="230.0,85.0 231.0,84.0 232.0,85.0 231.0,86.0" /><polygon fill="black" points="222.0,85.0 223.0,84.0 225.0,86.0 224.0,87.0 223.0,87.0 222.0,86.0" /><polygon fill="black" points="269.0,84.0 270.0,83.0 271.0,84.0 271.0,86.0 270.0,87.0 269.0,86.0" /><polygon fill="black" points="258.0,84.0 259.0,83.0 261.0,85.0 261.0,87.0 260.0,88.0 258.0,86.0" /><polygon fill="black" points="265.0,83.0 266.0,82.0 267.0,83.0 267.0,84.0 266.0,85.0 265.0,84.0" /><polygon fill="black" points="237.0,83.0 238.0,82.0 239.0,83.0 239.0,84.0 238.0,85.0 237.0,84.0" /><polygon fill="black" points="244.0,82.0 245.0,81.0 247.0,83.0 247.0,84.0 246.0,85.0 245.0,85.0 244.0,84.0" /><polygon fill="black" points="239.0,82.0 240.0,81.0 241.0,81.0 242.0,82.0 242.0,83.0 241.0,84.0 240.0,84.0 239.0,83.0" /><polygon fill="black" points="270.0,81.0 271.0,80.0 272.0,81.0 272.0,82.0 271.0,83.0 270.0,82.0" /><polygon fill="black" points="267.0,81.0 268.0,80.0 269.0,81.0 269.0,82.0 268.0,83.0 267.0,82.0" /><polygon fill="black" points="261.0,80.0 263.0,82.0 263.0,84.0 262.0,85.0 259.0,82.0" /><polygon fill="black" points="246.0,80.0 247.0,79.0 249.0,81.0 248.0,82.0 247.0,82.0 246.0,81.0" /><polygon fill="black" points="262.0,79.0 263.0,78.0 265.0,80.0 264.0,81.0 263.0,81.0 262.0,80.0" /><polygon fill="black" points="242.0,78.0 243.0,79.0 243.0,80.0 242.0,81.0 241.0,81.0 240.0,80.0" /><polygon fill="black" points="236.0,78.0 237.0,78.0 238.0,79.0 236.0,81.0 235.0,81.0 234.0,80.0" /><polygon fill="black" points="269.0,77.0 270.0,76.0 271.0,77.0 271.0,79.0 270.0,80.0 269.0,79.0" /><polygon fill="black" points="248.0,77.0 249.0,76.0 250.0,77.0 250.0,78.0 251.0,79.0 250.0,80.0 249.0,80.0 248.0,79.0" /><polygon fill="black" points="242.0,77.0 243.0,76.0 245.0,78.0 245.0,79.0 244.0,80.0 242.0,78.0" /><polygon fill="black" points="264.0,76.0 265.0,75.0 266.0,76.0 266.0,77.0 267.0,78.0 266.0,79.0 265.0,79.0 264.0,78.0" /><polygon fill="black" points="239.0,75.0 240.0,74.0 241.0,75.0 240.0,76.0" /><polygon fill="black" points="249.0,74.0 250.0,73.0 251.0,73.0 252.0,74.0 252.0,76.0 251.0,77.0 249.0,75.0" /><polygon fill="black" points="244.0,74.0 245.0,73.0 246.0,74.0 246.0,76.0 245.0,77.0 244.0,76.0" /><polygon fill="black" points="272.0,72.0 273.0,73.0 273.0,74.0 272.0,75.0 271.0,75.0 270.0,74.0" /><polygon fill="black" points="265.0,73.0 266.0,72.0 267.0,72.0 269.0,74.0 269.0,75.0 268.0,76.0 267.0,76.0 265.0,74.0" /><polygon fill="black" points="240.0,73.0 241.0,72.0 242.0,72.0 243.0,73.0 242.0,74.0 241.0,74.0" /><polygon fill="black" points="245.0,71.0 246.0,70.0 248.0,72.0 248.0,73.0 247.0,74.0 246.0,74.0 245.0,73.0" /><polygon fill="black" points="242.0,71.0 243.0,70.0 244.0,71.0 243.0,72.0" /><polygon fill="black" points="268.0,70.0 269.0,69.0 270.0,69.0 271.0,70.0 271.0,71.0 269.0,73.0 268.0,72.0" /><polygon fill="black" points="250.0,70.0 251.0,69.0 252.0,69.0 253.0,70.0 253.0,72.0 252.0,73.0 250.0,71.0" /><polygon fill="black" points="246.0,69.0 247.0,68.0 248.0,68.0 249.0,69.0 249.0,70.0 248.0,71.0" /><polygon fill="black" points="243.0,68.0 244.0,67.0 245.0,68.0 245.0,69.0 244.0,70.0 243.0,69.0" /><polygon fill="black" points="251.0,66.0 252.0,65.0 253.0,65.0 254.0,66.0 254.0,68.0 253.0,69.0 251.0,67.0" /><polygon fill="black" points="244.0,66.0 245.0,65.0 246.0,66.0 245.0,67.0" /><polygon fill="black" points="270.0,64.0 271.0,65.0 271.0,67.0 270.0,68.0 268.0,66.0" /><polygon fill="black" points="247.0,65.0 248.0,64.0 249.0,64.0 250.0,65.0 250.0,66.0 249.0,67.0" /><polygon fill="black" points="245.0,63.0 246.0,62.0 247.0,63.0 246.0,64.0" /><polygon fill="black" points="248.0,61.0 249.0,60.0 250.0,60.0 251.0,61.0 251.0,62.0 250.0,63.0 249.0,63.0 248.0,62.0" /><polygon fill="black" points="254.0,59.0 256.0,61.0 255.0,62.0 255.0,63.0 254.0,64.0 252.0,62.0 252.0,61.0" /><polygon fill="black" points="245.0,60.0 246.0,59.0 247.0,60.0 246.0,61.0" /><polygon fill="black" points="269.0,59.0 270.0,58.0 271.0,59.0 271.0,62.0 270.0,63.0 269.0,62.0" /><polygon fill="black" points="248.0,57.0 249.0,56.0 250.0,56.0 251.0,57.0 249.0,59.0 248.0,58.0" /><polygon fill="black" points="245.0,57.0 246.0,56.0 247.0,57.0 246.0,58.0" /><polygon fill="black" points="269.0,55.0 270.0,54.0 271.0,54.0 272.0,55.0 272.0,56.0 270.0,58.0 269.0,57.0" /><polygon fill="black" points="254.0,54.0 255.0,55.0 255.0,56.0 253.0,58.0 252.0,57.0 252.0,56.0" /><polygon fill="black" points="245.0,55.0 246.0,54.0 247.0,55.0 246.0,56.0" /><polygon fill="black" points="225.0,55.0 226.0,54.0 228.0,56.0 228.0,57.0 229.0,58.0 229.0,59.0 230.0,60.0 230.0,64.0 229.0,65.0 229.0,66.0 225.0,70.0 225.0,72.0 224.0,73.0 223.0,73.0 222.0,72.0 222.0,71.0 220.0,69.0 220.0,68.0 219.0,67.0 219.0,63.0 220.0,62.0 220.0,61.0 225.0,56.0" /><polygon fill="black" points="224.0,62.0" /><polygon fill="black" points="248.0,54.0 249.0,53.0 250.0,54.0 249.0,55.0" /><polygon fill="black" points="252.0,52.0 253.0,51.0 254.0,52.0 254.0,53.0 253.0,54.0 252.0,53.0" /><polygon fill="black" points="247.0,51.0 248.0,50.0 249.0,51.0 248.0,52.0" /><polygon fill="black" points="270.0,50.0 271.0,49.0 272.0,50.0 272.0,52.0 271.0,53.0 270.0,52.0" /><polygon fill="black" points="251.0,48.0 252.0,47.0 253.0,47.0 254.0,48.0 252.0,50.0 251.0,49.0" /><polygon fill="black" points="268.0,47.0 269.0,46.0 270.0,47.0 270.0,49.0 269.0,50.0 268.0,50.0 267.0,49.0 268.0,48.0" /><polygon fill="black" points="250.0,46.0 251.0,45.0 252.0,46.0 251.0,47.0" /><polygon fill="black" points="251.0,45.0 252.0,44.0 253.0,45.0 252.0,46.0" /><polygon fill="black" points="268.0,43.0 269.0,44.0 269.0,45.0 267.0,47.0 266.0,46.0 266.0,45.0" /><polygon fill="black" points="271.0,43.0 272.0,42.0 273.0,43.0 273.0,44.0 272.0,45.0 271.0,44.0" /><polygon fill="black" points="249.0,43.0 250.0,42.0 251.0,43.0 250.0,44.0" /><polygon fill="black" points="266.0,41.0 267.0,42.0 267.0,43.0 266.0,44.0 265.0,44.0 264.0,43.0" /><polygon fill="black" points="270.0,40.0 271.0,39.0 272.0,40.0 272.0,41.0 271.0,42.0 270.0,41.0" /><polygon fill="black" points="248.0,40.0 249.0,39.0 250.0,40.0 250.0,41.0 249.0,42.0 248.0,41.0" /><polygon fill="black" points="268.0,39.0 269.0,38.0 270.0,39.0 269.0,40.0" /><polygon fill="black" points="265.0,38.0 266.0,39.0 266.0,40.0 264.0,42.0 263.0,41.0 263.0,40.0" /><polygon fill="black" points="269.0,38.0 270.0,37.0 271.0,38.0 270.0,39.0" /><polygon fill="black" points="261.0,38.0 262.0,37.0 263.0,38.0 262.0,39.0" /><polygon fill="black" points="271.0,35.0 272.0,34.0 273.0,35.0 272.0,36.0" /><polygon fill="black" points="260.0,35.0 261.0,34.0 262.0,35.0 262.0,36.0 261.0,37.0 260.0,36.0" /><polygon fill="black" points="258.0,34.0 259.0,33.0 260.0,34.0 259.0,35.0" /><polygon fill="black" points="267.0,33.0 268.0,32.0 269.0,33.0 268.0,34.0" /><polygon fill="black" points="271.0,32.0 272.0,31.0 273.0,32.0 272.0,33.0" /><polygon fill="black" points="264.0,32.0 265.0,31.0 266.0,32.0 265.0,33.0" /><polygon fill="black" points="259.0,32.0 260.0,31.0 261.0,32.0 260.0,33.0" /><polygon fill="black" points="257.0,31.0 258.0,30.0 259.0,31.0 258.0,32.0" /><polygon fill="black" points="270.0,30.0 271.0,29.0 272.0,30.0 271.0,31.0" /><polygon fill="black" points="263.0,30.0 264.0,29.0 265.0,30.0 264.0,31.0" /><polygon fill="black" points="254.0,30.0 255.0,29.0 256.0,30.0 255.0,31.0" /><polygon fill="black" points="268.0,29.0 269.0,28.0 270.0,29.0 269.0,30.0" /><polygon fill="black" points="262.0,28.0 263.0,27.0 264.0,28.0 263.0,29.0" /><polygon fill="black" points="267.0,27.0 268.0,26.0 269.0,27.0 268.0,28.0" /><polygon fill="black" points="258.0,25.0 259.0,24.0 260.0,25.0 260.0,26.0 259.0,27.0 258.0,26.0" /><polygon fill="black" points="257.0,24.0 258.0,23.0 259.0,24.0 258.0,25.0" /><polygon fill="black" points="99.0,0.0 99.0,7.0 100.0,8.0 100.0,10.0 101.0,11.0 101.0,13.0 100.0,14.0 100.0,24.0 99.0,25.0 99.0,27.0 98.0,28.0 98.0,39.0 97.0,40.0 97.0,47.0 96.0,48.0 96.0,53.0 97.0,54.0 97.0,55.0 96.0,56.0 96.0,59.0 95.0,60.0 95.0,70.0 94.0,71.0 94.0,82.0 95.0,82.0 97.0,80.0 98.0,80.0 99.0,79.0 100.0,79.0 102.0,77.0 103.0,77.0 103.0,76.0 104.0,75.0 105.0,75.0 107.0,73.0 107.0,72.0 108.0,71.0 111.0,71.0 112.0,70.0 113.0,70.0 114.0,69.0 116.0,69.0 117.0,68.0 119.0,68.0 120.0,67.0 130.0,67.0 131.0,68.0 131.0,69.0 132.0,68.0 132.0,67.0 131.0,66.0 132.0,65.0 132.0,64.0 135.0,61.0 135.0,59.0 136.0,58.0 136.0,57.0 137.0,56.0 137.0,47.0 138.0,46.0 139.0,46.0 139.0,45.0 140.0,44.0 141.0,44.0 144.0,41.0 145.0,41.0 151.0,35.0 151.0,32.0 150.0,31.0 150.0,30.0 149.0,29.0 149.0,24.0 151.0,22.0 153.0,22.0 157.0,26.0 158.0,26.0 161.0,29.0 161.0,27.0 160.0,26.0 160.0,24.0 161.0,23.0 161.0,18.0 162.0,17.0 162.0,16.0 164.0,14.0 165.0,14.0 166.0,13.0 167.0,13.0 173.0,19.0 173.0,20.0 179.0,26.0 179.0,27.0 194.0,42.0 194.0,43.0 197.0,46.0 197.0,47.0 198.0,48.0 198.0,49.0 200.0,51.0 200.0,52.0 201.0,53.0 201.0,54.0 203.0,54.0 204.0,55.0 203.0,56.0 202.0,56.0 203.0,56.0 204.0,57.0 204.0,52.0 205.0,51.0 205.0,50.0 203.0,50.0 202.0,49.0 202.0,48.0 202.0,51.0 201.0,52.0 200.0,51.0 200.0,48.0 199.0,49.0 198.0,48.0 198.0,46.0 199.0,45.0 199.0,44.0 198.0,43.0 198.0,41.0 199.0,40.0 200.0,40.0 199.0,39.0 199.0,38.0 197.0,36.0 197.0,35.0 199.0,33.0 199.0,32.0 197.0,30.0 197.0,28.0 199.0,26.0 200.0,26.0 201.0,27.0 203.0,27.0 204.0,26.0 204.0,24.0 205.0,23.0 207.0,23.0 206.0,23.0 204.0,21.0 204.0,16.0 205.0,15.0 206.0,15.0 208.0,13.0 212.0,13.0 213.0,12.0 214.0,12.0 213.0,12.0 212.0,11.0 211.0,11.0 209.0,9.0 209.0,8.0 211.0,6.0 215.0,6.0 215.0,5.0 214.0,5.0 212.0,3.0 213.0,2.0 215.0,2.0 215.0,0.0" /><polygon fill="black" points="195.0,41.0 196.0,40.0 197.0,41.0 197.0,42.0 196.0,43.0 195.0,42.0" /><polygon fill="black" points="199.0,15.0 200.0,14.0 202.0,14.0 203.0,15.0 202.0,16.0 202.0,18.0 200.0,20.0 199.0,20.0 198.0,19.0 198.0,18.0 197.0,17.0 197.0,16.0 198.0,15.0" /><polygon fill="black" points="0.0,0.0 0.0,46.0 1.0,47.0 6.0,47.0 7.0,46.0 8.0,47.0 8.0,49.0 11.0,49.0 12.0,48.0 15.0,48.0 16.0,49.0 16.0,51.0 15.0,52.0 12.0,52.0 11.0,51.0 8.0,51.0 7.0,52.0 0.0,52.0 0.0,53.0 7.0,53.0 8.0,54.0 8.0,57.0 7.0,58.0 5.0,58.0 7.0,58.0 10.0,55.0 12.0,55.0 14.0,53.0 15.0,53.0 17.0,51.0 17.0,48.0 13.0,48.0 12.0,47.0 12.0,45.0 13.0,44.0 14.0,44.0 15.0,43.0 23.0,43.0 23.0,41.0 24.0,40.0 27.0,40.0 24.0,40.0 23.0,39.0 23.0,38.0 24.0,37.0 27.0,37.0 28.0,36.0 28.0,35.0 29.0,34.0 29.0,33.0 33.0,29.0 34.0,29.0 35.0,28.0 37.0,28.0 38.0,27.0 39.0,27.0 40.0,28.0 40.0,29.0 41.0,28.0 41.0,26.0 42.0,25.0 43.0,25.0 46.0,22.0 47.0,22.0 48.0,21.0 51.0,21.0 52.0,20.0 53.0,20.0 54.0,19.0 60.0,19.0 61.0,20.0 62.0,20.0 63.0,21.0 62.0,22.0 62.0,23.0 63.0,23.0 63.0,21.0 64.0,20.0 65.0,20.0 66.0,19.0 67.0,19.0 69.0,17.0 69.0,16.0 72.0,13.0 75.0,16.0 76.0,15.0 77.0,15.0 77.0,14.0 78.0,13.0 79.0,13.0 79.0,12.0 80.0,11.0 80.0,8.0 81.0,7.0 81.0,6.0 83.0,4.0 83.0,2.0 84.0,1.0 85.0,1.0 86.0,0.0 87.0,0.0 88.0,1.0 88.0,0.0" /><polygon fill="black" points="22.0,40.0 23.0,39.0 24.0,40.0 23.0,41.0" /></svg>